<svg width="28" height="29" viewBox="0 0 28 29" fill="none" xmlns="http://www.w3.org/2000/svg">
<path d="M21.3347 12.7895C20.9382 13.1899 20.6346 13.6731 20.4454 14.2046C20.2562 14.7362 20.1862 15.3031 20.2403 15.865L20.2215 15.8461C20.2771 16.5074 20.1883 17.173 19.9611 17.7963C19.734 18.4196 19.3741 18.9857 18.9064 19.455C18.4388 19.9243 17.8748 20.2855 17.2537 20.5135C16.6326 20.7414 15.9694 20.8306 15.3104 20.7748L15.3292 20.7937C14.541 20.72 13.7493 20.8922 13.0621 21.2867C12.3749 21.6811 11.8256 22.2787 11.4892 22.9979C11.1528 23.7172 11.0456 24.523 11.1823 25.3056C11.3189 26.0882 11.6928 26.8094 12.2528 27.371C12.8129 27.9325 13.5319 28.3071 14.3118 28.4435C15.0917 28.5799 15.8946 28.4716 16.6109 28.1334C17.3273 27.7951 17.9222 27.2434 18.3147 26.5533C18.7071 25.8633 18.8779 25.0686 18.8038 24.2776L18.8237 24.2965C18.7681 23.6351 18.8569 22.9696 19.0841 22.3463C19.3112 21.7229 19.6712 21.1569 20.1388 20.6876C20.6064 20.2183 21.1704 19.857 21.7915 19.6291C22.4126 19.4011 23.0758 19.312 23.7348 19.3678L23.7149 19.3489C24.3588 19.407 25.007 19.301 25.5992 19.0408C26.1914 18.7806 26.7087 18.3746 27.1029 17.8604C27.4972 17.3462 27.7557 16.7404 27.8546 16.0992C27.9534 15.458 27.8894 14.8021 27.6684 14.1924C27.4474 13.5826 27.0767 13.0387 26.5905 12.6111C26.1043 12.1834 25.5184 11.8858 24.8871 11.7459C24.2558 11.606 23.5995 11.6283 22.9791 11.8108C22.3586 11.9932 21.7941 12.3298 21.3379 12.7895H21.3347Z" fill="white" fill-opacity="0.45"/>
<path d="M13.6162 18.3177L13.5963 18.2988C14.1564 18.3554 14.722 18.2864 15.2523 18.0968C15.7825 17.9072 16.2642 17.6016 16.6624 17.2023C17.0606 16.803 17.3654 16.3199 17.5547 15.7878C17.7441 15.2558 17.8132 14.6882 17.7572 14.1261L17.7771 14.145C17.7215 13.4836 17.8103 12.8181 18.0375 12.1947C18.2646 11.5714 18.6245 11.0053 19.0922 10.536C19.5598 10.0667 20.1238 9.70551 20.7449 9.47756C21.366 9.24961 22.0292 9.16044 22.6882 9.21626L22.6683 9.19737C23.4567 9.27166 24.2486 9.1001 24.9362 8.70607C25.6238 8.31205 26.1736 7.71474 26.5105 6.99563C26.8474 6.27652 26.9551 5.47061 26.8188 4.68782C26.6826 3.90504 26.309 3.1835 25.7491 2.62161C25.1893 2.05971 24.4703 1.68483 23.6903 1.54809C22.9103 1.41135 22.1073 1.51941 21.3907 1.85753C20.6742 2.19565 20.079 2.74736 19.6864 3.43743C19.2938 4.12749 19.1228 4.92231 19.1969 5.71346L19.178 5.69351C19.2339 6.3549 19.1451 7.02054 18.9181 7.64395C18.691 8.26735 18.331 8.8335 17.8634 9.30285C17.3957 9.77219 16.8316 10.1334 16.2104 10.3613C15.5892 10.5892 14.926 10.6782 14.267 10.6222L14.2858 10.6422C13.7257 10.5855 13.1601 10.6545 12.6298 10.8441C12.0995 11.0338 11.6179 11.3393 11.2197 11.7386C10.8215 12.1379 10.5167 12.6211 10.3274 13.1531C10.138 13.6851 10.0688 14.2527 10.1249 14.8149L10.106 14.796C10.1615 15.4573 10.0725 16.1227 9.84528 16.746C9.61808 17.3692 9.25813 17.9352 8.79055 18.4045C8.32296 18.8737 7.75899 19.235 7.13798 19.463C6.51697 19.691 5.85387 19.7803 5.19493 19.7247L5.21376 19.7436C4.42543 19.6693 3.63345 19.8408 2.94586 20.2349C2.25826 20.6289 1.70851 21.2262 1.3716 21.9453C1.03469 22.6644 0.927012 23.4703 1.06326 24.2531C1.19952 25.0359 1.57306 25.7574 2.13295 26.3193C2.69283 26.8812 3.4118 27.2561 4.19179 27.3928C4.97177 27.5296 5.7748 27.4215 6.49134 27.0834C7.20789 26.7453 7.80306 26.1936 8.19567 25.5035C8.58829 24.8134 8.75924 24.0186 8.68521 23.2275L8.70509 23.2464C8.64946 22.585 8.73832 21.9195 8.96545 21.2961C9.19259 20.6728 9.55253 20.1068 10.0202 19.6374C10.4878 19.1681 11.0518 18.8069 11.6729 18.579C12.294 18.351 12.9572 18.2618 13.6162 18.3177Z" fill="white" fill-opacity="0.45"/>
<path d="M6.6043 16.2105C7.00085 15.8102 7.30446 15.327 7.49346 14.7954C7.68245 14.2638 7.75217 13.6968 7.69763 13.135L7.71751 13.1539C7.66184 12.4924 7.75074 11.8266 7.97799 11.2032C8.20525 10.5797 8.56538 10.0135 9.03325 9.54415C9.50111 9.07481 10.0654 8.71362 10.6868 8.48582C11.3081 8.25801 11.9715 8.16908 12.6307 8.22523L12.6108 8.20633C13.3989 8.28043 14.1905 8.10877 14.8778 7.71477C15.5651 7.32077 16.1145 6.72361 16.4513 6.00472C16.788 5.28583 16.8955 4.48022 16.7593 3.69773C16.623 2.91524 16.2496 2.19397 15.6899 1.63228C15.1302 1.0706 14.4116 0.695833 13.6319 0.559098C12.8522 0.422363 12.0494 0.530314 11.3331 0.868229C10.6168 1.20614 10.0218 1.75757 9.62917 2.44732C9.23658 3.13706 9.06554 3.93155 9.13937 4.72243L9.12053 4.70353C9.17616 5.36488 9.08731 6.03044 8.86017 6.65376C8.63304 7.27708 8.2731 7.84315 7.80547 8.31245C7.33784 8.78176 6.77379 9.14299 6.1527 9.37094C5.5316 9.59889 4.86842 9.68806 4.20944 9.63223L4.22827 9.65113C3.58438 9.59318 2.93633 9.69928 2.34417 9.9596C1.75202 10.2199 1.23491 10.626 0.840781 11.1403C0.446648 11.6546 0.188238 12.2604 0.0894982 12.9015C-0.00924193 13.5427 0.0548817 14.1985 0.275927 14.8082C0.496973 15.4179 0.86779 15.9618 1.35401 16.3893C1.84024 16.8169 2.42614 17.1144 3.05742 17.2542C3.6887 17.3941 4.34494 17.3717 4.96532 17.1893C5.58571 17.0068 6.15017 16.6702 6.6064 16.2105H6.6043Z" fill="white" fill-opacity="0.45"/>
</svg>
